<svg width="34" height="36" viewBox="0 0 34 36" fill="none" xmlns="http://www.w3.org/2000/svg">
<path d="M34 10.3638V8.65253L31.8371 7.94555L31.6701 7.11002L33.1955 5.447L32.4062 3.88842L30.2054 4.49096L29.6589 3.88842L30.2281 1.62285L28.7786 0.690917L27.1621 2.37804L26.35 2.12096L25.8188 0H24.1036L23.633 2.12096L22.7147 2.37804L21.2196 0.690917L19.7473 1.57465L20.3621 3.80004L19.7473 4.47489L17.5844 3.87235L16.7496 5.40683L18.3205 7.09395L18.1004 7.92948L15.9375 8.55613L15.9147 10.2995L18.1004 10.902L18.2826 11.8741L16.7571 13.4729L17.5464 14.9592L19.7929 14.3566L20.3393 15.0475L19.7246 17.2087L21.2348 18.1406L22.7071 16.5017L23.5875 16.7347L24.096 19.0243L25.8112 19.0484L26.3196 16.7347L27.2 16.4535L28.771 18.1888L30.3192 17.2167L29.6513 14.9672L30.2433 14.3164L32.429 15.0234L33.2107 13.4086L31.6246 11.8982L31.7915 10.9261L34 10.3638ZM24.9536 13.9951C22.5781 13.9951 20.6429 11.9545 20.6429 9.43182C20.6429 6.90917 22.5705 4.86856 24.9536 4.86856C27.3366 4.86856 29.2643 6.90917 29.2643 9.43182C29.2643 11.9625 27.3366 13.9951 24.9536 13.9951ZM30.4406 15.3127L34 16.4776V19.6831L29.8183 20.7597L29.5071 22.5834L32.4594 25.4193L31.0022 28.4642L26.904 27.1225L25.796 28.3437L27.0634 32.5615L24.1567 34.3852L21.2045 31.1314L19.5576 31.6617L18.6013 36L15.3835 35.9598L14.4272 31.6536L12.7804 31.2037L10.0179 34.2888L7.17946 32.5454L8.33304 28.4883L7.2933 27.1948L3.08125 28.3276L1.58616 25.5318L4.4625 22.5271L4.09821 20.6954L0 19.5626L0.0379464 16.2767L4.09821 15.0957L4.5308 13.5131L1.57857 10.3477L3.14955 7.47155L7.21741 8.60433L8.37098 7.343L7.21741 3.16536L9.97991 1.50234L12.7728 4.66771L14.4955 4.17764L15.3759 0H18.5938L19.4741 3.68757L17.7589 3.21357L17.2808 3.07699L17.0304 3.53493L16.1955 5.0694L15.9451 5.5193L16.2942 5.88886L17.5996 7.28677L17.5768 7.36711L15.7705 7.88931L15.3 8.02589L15.2924 8.54006L15.2772 9.57643C11.6723 10.412 8.95536 13.8183 8.95536 17.8915C8.95536 22.5753 12.5451 26.3834 16.9772 26.3834C20.8098 26.3834 24.0125 23.5394 24.8094 19.7313L25.8112 19.7474L26.3348 19.7554L26.4563 19.2171L26.8813 17.289L27.0254 17.2408L28.3232 18.6708L28.6799 19.0645L29.1201 18.7913L30.6683 17.8192L31.1085 17.538L30.9567 17.0158L30.4406 15.3127Z" fill="black"/>
</svg>
